<?xml version="1.0" standalone="no"?>
<!DOCTYPE svg PUBLIC "-//W3C//DTD SVG 20010904//EN"
 "http://www.w3.org/TR/2001/REC-SVG-20010904/DTD/svg10.dtd">
<svg version="1.0" xmlns="http://www.w3.org/2000/svg"
 width="257.000000pt" height="205.000000pt" viewBox="0 0 257.000000 205.000000"
 preserveAspectRatio="xMidYMid meet">

<g transform="translate(0.000000,205.000000) scale(0.100000,-0.100000)"
fill="#000000" stroke="none">
<path d="M1460 1760 l0 -90 -197 0 -198 0 -80 85 c-66 70 -85 85 -110 85 -26
0 -70 -40 -327 -297 -268 -268 -298 -301 -298 -330 0 -39 37 -69 72 -59 13 3
142 124 287 269 l263 264 161 -166 c89 -91 207 -212 262 -268 l101 -103 402 0
c389 0 403 1 422 20 29 29 25 64 -12 107 -133 155 -323 370 -336 381 -11 8
-53 12 -129 12 l-113 0 0 90 0 90 -85 0 -85 0 0 -90z"/>
<path d="M700 1310 l0 -70 64 0 c72 0 75 4 68 93 l-4 47 -64 0 -64 0 0 -70z"/>
<path d="M910 1310 l0 -70 70 0 71 0 -3 68 -3 67 -67 3 -68 3 0 -71z"/>
<path d="M700 1110 l0 -70 65 0 65 0 0 70 0 70 -65 0 -65 0 0 -70z"/>
<path d="M910 1110 l0 -70 70 0 71 0 -3 68 -3 67 -67 3 -68 3 0 -71z"/>
<path d="M1288 773 l-38 -4 0 -83 0 -83 49 -6 c95 -11 157 28 116 73 -11 12
-13 20 -6 25 15 9 14 50 -1 63 -17 13 -73 20 -120 15z m87 -53 c0 -10 -12 -16
-37 -18 -33 -3 -38 0 -38 18 0 18 5 21 38 18 25 -2 37 -8 37 -18z m15 -69 c0
-12 -26 -21 -61 -21 -19 0 -29 5 -29 15 0 11 12 15 45 15 25 0 45 -4 45 -9z"/>
<path d="M970 685 c0 -84 0 -85 25 -85 23 0 25 4 25 48 l1 47 20 -27 c27 -36
38 -35 71 4 l27 33 1 -52 c0 -46 3 -53 20 -53 18 0 20 7 20 85 0 83 -1 85 -24
85 -16 0 -31 -12 -50 -40 -14 -22 -28 -40 -31 -40 -3 0 -17 18 -31 40 -19 28
-34 40 -50 40 -23 0 -24 -2 -24 -85z"/>
<path d="M860 440 c0 -6 120 -10 340 -10 220 0 340 4 340 10 0 6 -120 10 -340
10 -220 0 -340 -4 -340 -10z"/>
<path d="M573 306 c9 -7 17 -23 17 -35 0 -11 5 -21 10 -21 6 0 10 11 10 25 0
16 6 25 15 25 8 0 15 5 15 10 0 6 -19 10 -42 10 -38 -1 -41 -2 -25 -14z"/>
<path d="M652 288 c3 -28 7 -34 32 -36 31 -4 46 10 46 46 0 32 -18 27 -22 -5
-2 -17 -9 -28 -18 -28 -9 0 -16 11 -18 28 -5 39 -24 34 -20 -5z"/>
<path d="M780 305 c-21 -25 -8 -50 28 -53 17 -2 32 1 32 6 0 5 -10 8 -22 8
-14 -1 -24 6 -26 17 -3 13 3 17 22 17 14 0 26 5 26 10 0 15 -46 12 -60 -5z"/>
<path d="M868 287 l-16 -32 39 0 c22 0 39 1 39 3 0 10 -32 62 -38 62 -5 0 -15
-15 -24 -33z m32 3 c0 -5 -5 -10 -11 -10 -5 0 -7 5 -4 10 3 6 8 10 11 10 2 0
4 -4 4 -10z"/>
<path d="M957 313 c-15 -14 -6 -32 21 -42 l27 -11 -27 4 c-16 2 -28 -1 -28 -6
0 -5 15 -8 33 -6 39 4 44 29 7 39 -24 7 -24 7 -2 8 12 1 22 6 22 11 0 11 -43
14 -53 3z"/>
<path d="M1045 290 c-8 -16 -15 -30 -15 -32 0 -2 17 -3 39 -3 l39 0 -16 32
c-19 41 -27 41 -47 3z m30 0 c3 -5 1 -10 -4 -10 -6 0 -11 5 -11 10 0 6 2 10 4
10 3 0 8 -4 11 -10z"/>
<path d="M1180 310 c0 -5 7 -10 15 -10 9 0 15 -9 15 -25 0 -14 5 -25 10 -25 6
0 10 11 10 25 0 16 6 25 15 25 8 0 15 5 15 10 0 6 -18 10 -40 10 -22 0 -40 -4
-40 -10z"/>
<path d="M1272 288 c3 -28 7 -34 32 -36 31 -4 46 10 46 46 0 32 -18 27 -22 -5
-2 -17 -9 -28 -18 -28 -9 0 -16 11 -18 28 -5 39 -24 34 -20 -5z"/>
<path d="M1390 285 c0 -19 5 -35 10 -35 6 0 10 5 10 10 0 6 9 10 20 10 11 0
20 -4 20 -10 0 -5 5 -10 10 -10 6 0 10 16 10 35 0 19 -4 35 -10 35 -5 0 -10
-7 -10 -15 0 -8 -9 -15 -20 -15 -11 0 -20 7 -20 15 0 8 -4 15 -10 15 -5 0 -10
-16 -10 -35z"/>
<path d="M1491 306 c-7 -8 -10 -24 -6 -36 5 -17 13 -20 38 -18 28 3 32 7 32
33 0 25 -4 31 -26 33 -14 2 -31 -4 -38 -12z m57 -23 c-2 -10 -12 -18 -23 -18
-11 0 -21 8 -23 18 -3 13 3 17 23 17 20 0 26 -4 23 -17z"/>
<path d="M1592 311 c-8 -4 -12 -19 -10 -32 2 -20 10 -25 41 -27 28 -2 37 0 37
12 0 19 -17 21 -22 4 -6 -16 -38 -2 -38 17 0 9 9 15 25 15 14 0 25 5 25 10 0
12 -40 13 -58 1z"/>
<path d="M1696 312 c-3 -5 -10 -20 -15 -33 -8 -23 -7 -24 29 -24 l38 0 -12 29
c-12 31 -30 43 -40 28z"/>
<path d="M1767 313 c-10 -10 -8 -63 2 -63 5 0 11 6 14 13 3 10 9 10 26 0 11
-7 22 -13 24 -13 3 0 2 44 -2 63 -1 9 -55 9 -64 0z m46 -20 c-7 -2 -19 -2 -25
0 -7 3 -2 5 12 5 14 0 19 -2 13 -5z"/>
<path d="M1123 250 c1 -11 5 -20 9 -20 4 0 8 9 8 20 0 11 -4 20 -9 20 -6 0 -9
-9 -8 -20z"/>
</g>
</svg>
